PathFileType	4	(x/y/z)	S04_PSF_T10.trc
DataRate	CameraRate	NumFrames	NumMarkers	Units	OrigDataRate	OrigDataStartFrame	OrigNumFrames
240	240	4	51	mm	240	1	425
Frame#	Time	Sternum			R.Acromium			L.Acromium			Top.Head			R.ASIS			L.ASIS			R.PSIS			L.PSIS			R.Great.Tro			L.Great.Tro			R.Iliac.Crest			L.Iliac.Crest			V.Sacral			R.Thigh.Upper.Post			R.Thigh.Lower.Ant			R.Thigh.Lower.Post			R.Thigh.Upper.Ant			R.Knee.Lat			R.Knee.Med			R.Shank.Upper.Post			R.Shank.Lower.Ant			R.Shank.Lower.Post			R.Shank.Upper.Ant			R.Ankle.Lat			R.Ankle.Med			R.Heel.Upper			R.Heel.Med			R.Heel.Lat			R.Toe.Lat			R.Toe.Med			R.Toe.Tip			L.Thigh.Upper.Post			L.Thigh.Lower.Ant			L.Thigh.Lower.Post			L.Thigh.Upper.Ant			L.Knee.Lat			L.Knee.Med			L.Shank.Upper.Post			L.Shank.Lower.Ant			L.Shank.Lower.Post			L.Shank.Upper.Ant			L.Ankle.Lat			L.Ankle.Med			L.Heel.Upper			L.Heel.Med			L.Heel.Lat			L.Toe.Lat			L.Toe.Med			L.Toe.Tip			Cervical.Spine			Back			
		X1	Y1	Z1	X2	Y2	Z2	X3	Y3	Z3	X4	Y4	Z4	X5	Y5	Z5	X6	Y6	Z6	X7	Y7	Z7	X8	Y8	Z8	X9	Y9	Z9	X10	Y10	Z10	X11	Y11	Z11	X12	Y12	Z12	X13	Y13	Z13	X14	Y14	Z14	X15	Y15	Z15	X16	Y16	Z16	X17	Y17	Z17	X18	Y18	Z18	X19	Y19	Z19	X20	Y20	Z20	X21	Y21	Z21	X22	Y22	Z22	X23	Y23	Z23	X24	Y24	Z24	X25	Y25	Z25	X26	Y26	Z26	X27	Y27	Z27	X28	Y28	Z28	X29	Y29	Z29	X30	Y30	Z30	X31	Y31	Z31	X32	Y32	Z32	X33	Y33	Z33	X34	Y34	Z34	X35	Y35	Z35	X36	Y36	Z36	X37	Y37	Z37	X38	Y38	Z38	X39	Y39	Z39	X40	Y40	Z40	X41	Y41	Z41	X42	Y42	Z42	X43	Y43	Z43	X44	Y44	Z44	X45	Y45	Z45	X46	Y46	Z46	X47	Y47	Z47	X48	Y48	Z48	X49	Y49	Z49	X50	Y50	Z50	X51	Y51	Z51	

1	0	NaN	NaN	NaN	-1567.5	1484	466.62	-1605.3	1472.9	119.28	-1552.7	1811.1	273.39	NaN	NaN	NaN	NaN	NaN	NaN	NaN	NaN	NaN	NaN	NaN	NaN	-1620	902.91	489.34	-1596.7	900.56	109.6	-1592.4	1069.7	468.82	-1597.9	1069.5	131.98	-1731.8	974.71	279.44	-1687.8	660.96	468.45	-1620.9	563.69	425.2	-1710.7	573.6	453.01	-1590.1	663.39	453.05	-1699.2	493.43	438.55	-1735.9	505.96	312.09	-1852.8	305.68	425.1	-1807	213.39	382.71	-1872.7	240.75	406.5	NaN	NaN	NaN	NaN	NaN	NaN	-1867.8	137.84	292.8	-1963.8	104.51	326.65	-1957	71.825	297.61	-1966	73.094	361	NaN	NaN	NaN	-1758.1	43.08	296.33	-1694.2	51.622	345.04	-1538.7	662.29	121.29	-1437.5	604.36	115.14	-1497.8	584.75	135.78	-1484.4	681.3	99.378	-1429.5	517.63	135.86	-1402	508.24	263.28	-1416.6	317.22	146.97	NaN	NaN	NaN	-1374.1	252.12	152.53	-1366.8	341.68	127.68	-1253.1	124.77	154.87	-1244.4	143.21	246.31	-1296.9	60.98	209.5	-1276.6	47.196	242.46	-1279.7	38.439	182.01	-1120.1	121.97	130.39	-1094.3	156.92	242.33	-1054.5	191.65	188.1	-1635.6	1534.9	301.93	-1727.3	1281.3	290.22
2	0.0041667	NaN	NaN	NaN	-1562.5	1483.7	466.16	-1600.3	1472.1	118.76	-1547.8	1810.5	272.72	NaN	NaN	NaN	NaN	NaN	NaN	NaN	NaN	NaN	NaN	NaN	NaN	-1614.8	902.3	488.98	-1590.9	900.06	109.23	-1587.3	1069.2	468.5	-1592.5	1068.8	131.65	-1726.3	974.08	278.86	-1682.9	660.55	468.17	-1616.9	562.85	425.7	-1706.2	573.31	452.77	-1585.9	662.57	453.44	-1697	493.83	438.89	-1731.1	505.48	312	-1849.8	306.37	425.27	-1805.1	213.82	382.76	-1870.5	241.73	406.63	NaN	NaN	NaN	NaN	NaN	NaN	-1867.2	139.11	293.37	-1963.1	106.35	326.94	-1956.4	73.683	297.79	-1965.4	74.829	361.2	-1797.6	45.602	414.65	-1758	43.168	296.4	-1693.8	51.525	344.96	-1532.3	661.98	121.12	-1429.6	604.02	116.15	-1491.5	584.5	135.77	-1478.1	681.19	99.612	-1422.4	516.98	136.31	-1396.2	507.91	263.47	-1411.9	316.78	147.14	NaN	NaN	NaN	-1370.1	251.35	152.86	-1360.6	340.24	128.54	-1250.1	123.17	155.66	-1241.7	141.51	247.06	-1294.6	60.213	210.08	-1274.5	46.045	243.04	-1277.7	37.519	182.53	-1117.5	119.62	131.29	-1091.4	153.85	242.94	-1051.4	188.67	189.17	-1630.5	1534.2	301.4	-1722	1280.6	289.89
3	0.0083333	NaN	NaN	NaN	-1557.3	1483.4	465.68	-1595.1	1471.3	118.21	-1542.6	1809.9	272.02	NaN	NaN	NaN	NaN	NaN	NaN	NaN	NaN	NaN	NaN	NaN	NaN	-1609.3	901.68	488.6	-1585	899.56	108.84	-1582	1068.6	468.15	-1586.9	1068.1	131.3	-1720.5	973.44	278.25	-1677.7	660.12	467.87	-1612.7	561.99	426.19	-1701.4	572.99	452.52	-1581.5	661.73	453.8	-1694.4	494.18	439.2	-1726	504.98	311.9	-1846.6	307.11	425.43	-1803	214.28	382.82	-1868.2	242.77	406.77	NaN	NaN	NaN	NaN	NaN	NaN	-1866.5	140.45	293.95	-1962.2	108.31	327.24	-1955.9	75.664	297.98	-1964.8	76.682	361.4	-1797.3	45.703	414.71	-1757.8	43.258	296.47	-1693.5	51.418	344.88	-1525.6	661.69	120.94	-1421.5	603.7	117.16	-1484.8	584.25	135.76	-1471.5	681.08	99.871	-1415	516.33	136.77	-1390.2	507.57	263.67	-1406.9	316.35	147.3	NaN	NaN	NaN	-1366	250.56	153.19	-1354.3	338.8	129.41	-1247	121.54	156.46	-1238.8	139.76	247.84	-1292.2	59.475	210.66	-1272.4	44.906	243.62	-1275.7	36.623	183.05	-1114.8	117.14	132.23	-1088.5	150.61	243.6	-1048.1	185.51	190.31	-1625.1	1533.5	300.84	-1716.5	1279.8	289.53
4	0.0125	NaN	NaN	NaN	-1552	1483	465.16	-1589.8	1470.5	117.64	-1537.3	1809.3	271.3	NaN	NaN	NaN	NaN	NaN	NaN	NaN	NaN	NaN	NaN	NaN	NaN	-1603.7	901.04	488.19	-1578.8	899.07	108.44	-1576.4	1068	467.79	-1581.1	1067.4	130.93	-1714.5	972.81	277.61	-1672.3	659.65	467.57	-1608.3	561.11	426.67	-1696.4	572.64	452.25	-1576.8	660.88	454.14	-1691.4	494.47	439.48	-1720.7	504.45	311.8	-1843.3	307.91	425.58	-1800.8	214.78	382.87	-1865.7	243.87	406.9	NaN	NaN	NaN	NaN	NaN	NaN	-1865.8	141.83	294.51	-1961.4	110.39	327.55	-1955.2	77.769	298.18	-1964.1	78.653	361.6	-1797.1	45.813	414.77	-1757.7	43.352	296.53	-1693.1	51.301	344.79	-1518.8	661.4	120.76	-1413.2	603.39	118.15	-1478	584	135.74	-1464.6	680.95	100.16	-1407.5	515.67	137.24	-1384	507.22	263.88	-1401.9	315.93	147.45	NaN	NaN	NaN	-1361.7	249.76	153.5	-1347.9	337.36	130.28	-1243.9	119.88	157.26	-1235.9	137.97	248.63	-1289.9	58.785	211.22	-1270.4	43.8	244.18	-1273.8	35.773	183.55	-1112.1	114.56	133.21	-1085.5	147.23	244.33	-1044.8	182.15	191.52	-1619.6	1532.8	300.26	-1710.8	1279	289.15
